{
    "asset" : {
        "generator" : "Khronos glTF Blender I/O v3.4.50",
        "version" : "2.0"
    },
    "extensionsUsed" : [
        "KHR_materials_specular",
        "KHR_materials_ior"
    ],
    "scene" : 0,
    "scenes" : [
        {
            "name" : "Scene",
            "nodes" : [
                0
            ]
        }
    ],
    "nodes" : [
        {
            "mesh" : 0,
            "name" : "prim215-chimney",
            "rotation" : [
                0.70710688829422,
                0,
                0,
                0.7071066498756409
            ]
        }
    ],
    "materials" : [
        {
            "doubleSided" : true,
            "extensions" : {
                "KHR_materials_specular" : {
                    "specularColorFactor" : [
                        0,
                        0,
                        0
                    ]
                },
                "KHR_materials_ior" : {
                    "ior" : 1.4500000476837158
                }
            },
            "name" : "Material.473",
            "pbrMetallicRoughness" : {
                "baseColorTexture" : {
                    "index" : 0
                },
                "metallicFactor" : 0
            }
        },
        {
            "doubleSided" : true,
            "extensions" : {
                "KHR_materials_specular" : {
                    "specularColorFactor" : [
                        0,
                        0,
                        0
                    ]
                },
                "KHR_materials_ior" : {
                    "ior" : 1.4500000476837158
                }
            },
            "name" : "Material.474",
            "pbrMetallicRoughness" : {
                "baseColorTexture" : {
                    "index" : 1
                },
                "metallicFactor" : 0
            }
        },
        {
            "doubleSided" : true,
            "extensions" : {
                "KHR_materials_specular" : {
                    "specularColorFactor" : [
                        0,
                        0,
                        0
                    ]
                },
                "KHR_materials_ior" : {
                    "ior" : 1.4500000476837158
                }
            },
            "name" : "Material.475",
            "pbrMetallicRoughness" : {
                "baseColorTexture" : {
                    "index" : 2
                },
                "metallicFactor" : 0
            }
        }
    ],
    "meshes" : [
        {
            "name" : "prim215-chimney",
            "primitives" : [
                {
                    "attributes" : {
                        "POSITION" : 0,
                        "TEXCOORD_0" : 1,
                        "NORMAL" : 2
                    },
                    "indices" : 3,
                    "material" : 0
                },
                {
                    "attributes" : {
                        "POSITION" : 4,
                        "TEXCOORD_0" : 5,
                        "NORMAL" : 6
                    },
                    "indices" : 7,
                    "material" : 1
                },
                {
                    "attributes" : {
                        "POSITION" : 8,
                        "TEXCOORD_0" : 9,
                        "NORMAL" : 10
                    },
                    "indices" : 11,
                    "material" : 2
                }
            ]
        }
    ],
    "textures" : [
        {
            "sampler" : 0,
            "source" : 0
        },
        {
            "sampler" : 0,
            "source" : 1
        },
        {
            "sampler" : 0,
            "source" : 2
        }
    ],
    "images" : [
        {
            "mimeType" : "image/png",
            "name" : "tex114.tga",
            "uri" : "tex114_tga.png"
        },
        {
            "mimeType" : "image/png",
            "name" : "tex123.tga",
            "uri" : "tex123_tga.png"
        },
        {
            "mimeType" : "image/png",
            "name" : "tex115.tga",
            "uri" : "tex115_tga.png"
        }
    ],
    "accessors" : [
        {
            "bufferView" : 0,
            "componentType" : 5126,
            "count" : 45,
            "max" : [
                32,
                128,
                64
            ],
            "min" : [
                -32,
                0,
                -64
            ],
            "type" : "VEC3"
        },
        {
            "bufferView" : 1,
            "componentType" : 5126,
            "count" : 45,
            "type" : "VEC2"
        },
        {
            "bufferView" : 2,
            "componentType" : 5126,
            "count" : 45,
            "type" : "VEC3"
        },
        {
            "bufferView" : 3,
            "componentType" : 5123,
            "count" : 84,
            "type" : "SCALAR"
        },
        {
            "bufferView" : 4,
            "componentType" : 5126,
            "count" : 16,
            "max" : [
                44,
                140,
                -64
            ],
            "min" : [
                -44,
                51,
                -67
            ],
            "type" : "VEC3"
        },
        {
            "bufferView" : 5,
            "componentType" : 5126,
            "count" : 16,
            "type" : "VEC2"
        },
        {
            "bufferView" : 6,
            "componentType" : 5126,
            "count" : 16,
            "type" : "VEC3"
        },
        {
            "bufferView" : 7,
            "componentType" : 5123,
            "count" : 24,
            "type" : "SCALAR"
        },
        {
            "bufferView" : 8,
            "componentType" : 5126,
            "count" : 12,
            "max" : [
                44,
                140,
                -67
            ],
            "min" : [
                -44,
                51,
                -118
            ],
            "type" : "VEC3"
        },
        {
            "bufferView" : 9,
            "componentType" : 5126,
            "count" : 12,
            "type" : "VEC2"
        },
        {
            "bufferView" : 10,
            "componentType" : 5126,
            "count" : 12,
            "type" : "VEC3"
        },
        {
            "bufferView" : 11,
            "componentType" : 5123,
            "count" : 12,
            "type" : "SCALAR"
        }
    ],
    "bufferViews" : [
        {
            "buffer" : 0,
            "byteLength" : 540,
            "byteOffset" : 0,
            "target" : 34962
        },
        {
            "buffer" : 0,
            "byteLength" : 360,
            "byteOffset" : 540,
            "target" : 34962
        },
        {
            "buffer" : 0,
            "byteLength" : 540,
            "byteOffset" : 900,
            "target" : 34962
        },
        {
            "buffer" : 0,
            "byteLength" : 168,
            "byteOffset" : 1440,
            "target" : 34963
        },
        {
            "buffer" : 0,
            "byteLength" : 192,
            "byteOffset" : 1608,
            "target" : 34962
        },
        {
            "buffer" : 0,
            "byteLength" : 128,
            "byteOffset" : 1800,
            "target" : 34962
        },
        {
            "buffer" : 0,
            "byteLength" : 192,
            "byteOffset" : 1928,
            "target" : 34962
        },
        {
            "buffer" : 0,
            "byteLength" : 48,
            "byteOffset" : 2120,
            "target" : 34963
        },
        {
            "buffer" : 0,
            "byteLength" : 144,
            "byteOffset" : 2168,
            "target" : 34962
        },
        {
            "buffer" : 0,
            "byteLength" : 96,
            "byteOffset" : 2312,
            "target" : 34962
        },
        {
            "buffer" : 0,
            "byteLength" : 144,
            "byteOffset" : 2408,
            "target" : 34962
        },
        {
            "buffer" : 0,
            "byteLength" : 24,
            "byteOffset" : 2552,
            "target" : 34963
        }
    ],
    "samplers" : [
        {
            "magFilter" : 9729,
            "minFilter" : 9987
        }
    ],
    "buffers" : [
        {
            "byteLength" : 2576,
            "uri" : "scene.bin"
        }
    ]
}
